<?xml version="1.0" encoding="UTF-8"?>
<svg id="Characters" xmlns="http://www.w3.org/2000/svg" viewBox="0 0 841.89 595.28">
  <defs>
    <style>
      .cls-1 {
        fill: #559ddf;
      }

      .cls-1, .cls-2, .cls-3, .cls-4, .cls-5, .cls-6, .cls-7, .cls-8, .cls-9, .cls-10, .cls-11, .cls-12, .cls-13, .cls-14, .cls-15, .cls-16, .cls-17, .cls-18, .cls-19, .cls-20, .cls-21, .cls-22, .cls-23, .cls-24, .cls-25, .cls-26, .cls-27, .cls-28, .cls-29, .cls-30, .cls-31, .cls-32, .cls-33, .cls-34, .cls-35, .cls-36, .cls-37, .cls-38, .cls-39, .cls-40, .cls-41, .cls-42, .cls-43, .cls-44, .cls-45, .cls-46, .cls-47, .cls-48, .cls-49, .cls-50, .cls-51 {
        stroke-width: 0px;
      }

      .cls-2 {
        fill: #fefefe;
      }

      .cls-3 {
        fill: #cae2f8;
      }

      .cls-4 {
        fill: #6cace6;
      }

      .cls-5 {
        fill: #18437f;
      }

      .cls-6 {
        fill: #113873;
      }

      .cls-7 {
        fill: #e4a17b;
      }

      .cls-8 {
        fill: #b7d8f4;
      }

      .cls-9 {
        fill: #f8c494;
      }

      .cls-52 {
        fill: none;
        stroke: #000;
        stroke-miterlimit: 10;
      }

      .cls-10 {
        fill: #f8b77d;
      }

      .cls-11 {
        fill: #26589e;
      }

      .cls-12 {
        fill: #64a7e3;
      }

      .cls-13 {
        fill: #b3d6f4;
      }

      .cls-14 {
        fill: #9acaf1;
      }

      .cls-15 {
        fill: #316db7;
      }

      .cls-16 {
        fill: #6bace7;
      }

      .cls-17 {
        fill: #ddedfa;
      }

      .cls-18 {
        fill: #f7c699;
      }

      .cls-19 {
        fill: #f7c496;
      }

      .cls-20 {
        fill: #dcedfa;
      }

      .cls-21 {
        fill: #fff;
      }

      .cls-22 {
        fill: #275ea8;
      }

      .cls-23 {
        fill: #2e67b2;
      }

      .cls-24 {
        fill: #174685;
      }

      .cls-25 {
        fill: #f7b481;
      }

      .cls-26 {
        fill: #f7c597;
      }

      .cls-27 {
        fill: #2e69b5;
      }

      .cls-28 {
        fill: #eda077;
      }

      .cls-29 {
        fill: #e8f4fd;
      }

      .cls-30 {
        fill: #85c6f4;
      }

      .cls-31 {
        fill: #113772;
      }

      .cls-32 {
        fill: #b6d7f5;
      }

      .cls-33 {
        fill: #f9bc85;
      }

      .cls-34 {
        fill: #326ebc;
      }

      .cls-35 {
        fill: #f8c596;
      }

      .cls-36 {
        fill: #cfe6f9;
      }

      .cls-37 {
        fill: #f7c495;
      }

      .cls-38 {
        fill: #f9b77c;
      }

      .cls-39 {
        fill: #2a61ab;
      }

      .cls-40 {
        fill: #1353a0;
      }

      .cls-41 {
        fill: #dfeffb;
      }

      .cls-42 {
        fill: #9eccf3;
      }

      .cls-43 {
        fill: #f4be8e;
      }

      .cls-44 {
        fill: #113974;
      }

      .cls-45 {
        fill: #5da2e1;
      }

      .cls-46 {
        fill: #e9a17b;
      }

      .cls-47 {
        fill: #113b76;
      }

      .cls-48 {
        fill: #b5d6f4;
      }

      .cls-49 {
        fill: #efa57a;
      }

      .cls-50 {
        fill: #549cdf;
      }

      .cls-51 {
        fill: #e1f1f9;
      }
    </style>
  </defs>
  <path class="cls-39" d="m198.01,370.3c-49.72-21.19-41.64-83.41-41.64-83.41,28.68-5.46,39.38-13.67,41.64-15.67,2.26,2,12.96,10.21,41.65,15.67,0,0,8.07,62.22-41.65,83.41Z"/>
  <path class="cls-24" d="m198.01,359.64c-39.02-16.63-32.68-65.46-32.68-65.46,22.51-4.28,30.9-10.73,32.68-12.3,1.77,1.57,10.17,8.01,32.69,12.3,0,0,6.33,48.83-32.69,65.46Z"/>
  <path class="cls-51" d="m600.31,379.8s41.58-19.5,64.08-12,15.75,22.12,15.38,23.25-5.62,21.57-45.38,40.41-76.12,41.78-76.12,41.78l-11.4-11.07s48.11-81.81,53.44-82.37Z"/>
  <path class="cls-5" d="m413.7,87.77v15.09h-9v-15.09c0-2.49,2.01-4.5,4.5-4.5,1.24,0,2.37.5,3.18,1.32.81.81,1.32,1.93,1.32,3.18Z"/>
  <path class="cls-5" d="m404.7,102.86c-62.57,6.82-79.19,103.19-79.19,103.19-40.23-16.96-85.43-3.3-98.67,1.42-1.27.46-2.36-.93-1.69-2.1,59.36-103.82,179.55-102.51,179.55-102.51Z"/>
  <path class="cls-5" d="m593.15,207.47c-13.24-4.72-58.44-18.38-98.67-1.42,0,0-18.22-96.37-80.78-103.19,0,0,121.78-1.31,181.14,102.51.67,1.17-.42,2.56-1.69,2.1Z"/>
  <path class="cls-11" d="m494.48,206.05c-94.78-32.75-168.97,0-168.97,0,0,0,16.62-96.37,79.19-103.19h9c62.56,6.82,80.78,103.19,80.78,103.19Z"/>
  <rect class="cls-47" x="404.7" y="191.53" width="9" height="121.27"/>
  <path class="cls-17" d="m193.51,252.16s5-20.99,24.5-10.61c0,0-.5-15.25,16.88-15s18.88,17.88,18.88,17.88c0,0,15.75-10.25,20.25,10.12l-80.5-2.39Z"/>
  <path class="cls-17" d="m582.04,302.97s3.93-21.21,23.93-11.84c0,0-1.27-15.21,16.09-15.83s19.76,16.9,19.76,16.9c0,0,15.21-11.03,20.74,9.09l-80.52,1.69Z"/>
  <circle class="cls-16" cx="563.64" cy="253.43" r="30.75"/>
  <path class="cls-2" d="m563.98,263.75c-1.07,1.08-2.13,2.02-3.1,3.1-1.02,1.14-2.47,2.27-3.96,2.27-1.14,0-2.22-.32-2.97-1.06l-2.97-2.89-2.46-2.46c-.85-.85-1.6-1.82-2.63-2.55-.28-.2-.44-.65-.74-.9-2.04-1.68-2.17-4.63-.34-6.6,1.57-1.44,4.27-1.7,5.87-.12l6.09,6.02,19.75-19.73c.91-.91,2.13-1.15,3.38-1.08,1.64.09,3.04,1.32,3.56,2.67.66,1.72.25,3.39-.86,4.73-.31.37-.66.63-.99.96-1.48,1.53-2.49,2.37-4.01,4.04-.34.37-.71.68-1.07,1.04-.98.97-1.95,1.88-2.88,2.91-1.2,1.34-2.63,2.42-4.1,4.11-.36.41-.76.71-1.14,1.1l-.89.9-3.53,3.55Z"/>
  <path class="cls-2" d="m201.22,328.23c-1.14,1.15-2.26,2.15-3.29,3.3-1.08,1.21-2.62,2.41-4.21,2.41-1.21,0-2.36-.34-3.16-1.12l-3.15-3.07-2.62-2.62c-.91-.91-1.7-1.93-2.8-2.71-.3-.21-.47-.69-.79-.96-2.17-1.79-2.31-4.92-.36-7.02,1.67-1.54,4.54-1.8,6.24-.13l6.47,6.4,21-20.98c.97-.96,2.26-1.22,3.59-1.15,1.74.1,3.24,1.41,3.78,2.84.7,1.82.26,3.6-.92,5.03-.33.4-.7.66-1.05,1.02-1.57,1.63-2.64,2.52-4.26,4.3-.36.4-.75.72-1.14,1.1-1.04,1.03-2.07,2-3.06,3.09-1.28,1.42-2.79,2.57-4.36,4.37-.38.44-.81.76-1.22,1.17l-.94.95-3.75,3.77Z"/>
  <circle class="cls-41" cx="332.61" cy="344.37" r="83.43"/>
  <circle class="cls-20" cx="475.78" cy="348.87" r="83.43"/>
  <ellipse class="cls-8" cx="252.36" cy="406.47" rx="46.69" ry="52.5" transform="translate(-169.42 180.64) rotate(-30)"/>
  <path class="cls-12" d="m249.18,435.49s-15.85-53.25-76.6-57.19c0,0-23.81-1.31-14.25,23.62s26.81,34.69,26.81,34.69l57.19,48,6.85-49.12Z"/>
  <path class="cls-15" d="m335.1,468.32c0,10.14-2.69,19.61-7.36,27.64h-83.62c-.72-1.23-1.39-2.5-2.01-3.8-.57-1.18-1.09-2.39-1.57-3.62-.93-2.37-1.69-4.82-2.29-7.34-.61-2.57-1.04-5.22-1.27-7.93-.15-1.63-.22-3.28-.22-4.95,0-5.06.67-9.95,1.92-14.57,1.99-7.37,5.44-14.06,10.01-19.71,3.32-4.11,7.23-7.67,11.58-10.51,7.25-4.75,15.74-7.54,24.83-7.7.28-.01.55-.01.83-.01,1.21,0,2.41.05,3.59.14.09.01.18.01.27.02,1.7.14,3.37.37,5.02.7,1.83.35,3.62.82,5.37,1.38.65.21,1.29.43,1.93.67.69.26,1.37.53,2.04.81.08.04.16.07.24.11,3.38,1.46,6.58,3.32,9.54,5.52.33.24.66.49.98.74,7.84,6.11,13.92,14.64,17.28,24.57,1.88,5.57,2.91,11.57,2.91,17.84Z"/>
  <path class="cls-32" d="m242.79,490.92c0,.43-.23.85-.68,1.24-1.69,1.52-6.51,2.76-13.53,3.68-.32.04-.64.08-.97.12-1.25.16-2.57.3-3.95.44-.08-.15-.16-.29-.25-.44h-66.4c-11.79-1.43-19.31-3.59-19.31-6,0-3.27,13.75-6.07,33.22-7.22,6.13-.36,12.83-.56,19.84-.56,8.69,0,16.8.39,23.91,1.05,1.96.18,3.84.39,5.64.61,9.6,1.18,16.79,2.87,20.23,4.7,1.47.78,2.25,1.58,2.25,2.38Z"/>
  <path class="cls-42" d="m183.47,398.37s26.08,25.22,42.67,59.22l4.94,6.96s-9.69-42-47.61-66.18Z"/>
  <path class="cls-48" d="m679.58,489.82c0,2.36-6.46,4.51-17.06,6.14h-96.2s-.06.1-.07.14h-.01c-.31-.05-.6-.09-.9-.14-6.85-1.05-11.97-2.32-14.74-3.73-1.51-.77-2.32-1.57-2.32-2.41,0-1.27,1.86-2.47,5.21-3.58,4.58-1.5,11.97-2.79,21.24-3.75.08-.01.17-.02.25-.02,2.42-.26,4.97-.48,7.63-.69,9.31-.7,19.98-1.1,31.32-1.1,4.6,0,9.08.07,13.41.19,29.83.86,52.24,4.54,52.24,8.95Z"/>
  <path class="cls-13" d="m537.64,365.93s14.62-22.12,37.12-19.5,45.38,11.25,35.25,26.62-49.12,60.7-52.88,84.54l-49.5-13.29,30-78.38Z"/>
  <path class="cls-39" d="m613.93,412.75c-48.35-20.61-40.5-81.12-40.5-81.12,27.89-5.31,38.3-13.29,40.5-15.24,2.2,1.95,12.6,9.93,40.5,15.24,0,0,7.85,60.51-40.5,81.12Z"/>
  <path class="cls-45" d="m650.6,458.18s-3.74,10.01-23.26,22.69c-1.27.83-2.61,1.67-4.02,2.52-10.81,6.5-16.63,10.34-19.77,12.57h-37.23s-.06.1-.07.14h-.01c-.31-.05-.6-.09-.9-.14h-16.55l1.81-3.73,2.89-5.99,2.25-4.65c.09-.49.78-3.69,2.53-8.35,1.63-4.35,4.18-9.98,8.02-15.87,9.39-14.39,26.51-30.33,56.76-32.97,0,0,9.41.17,17.81,3.82,9.42,4.07,17.58,12.51,9.74,29.96Z"/>
  <path class="cls-14" d="m625.07,447.53c-.91.44-24.78,12-42.46,34.25-3.39,4.25-6.55,8.9-9.28,13.94v.02c-.04.07-.08.15-.12.22h-6.89c.71-1.35,3.59-6.58,8.42-13.16h0c.08-.11.16-.22.24-.33,9.66-13.1,26.92-31.3,50.09-34.94Z"/>
  <path class="cls-27" d="m574.76,484.16c0,4-.5,7.88-1.43,11.56v.02c-.01.07-.04.15-.05.22h-6.96s-.06.1-.07.14h-.01c-.31-.05-.6-.09-.9-.14h-47.39l.12.67-.14-.67h-21.93c-.97-3.75-1.49-7.71-1.49-11.8,0-14.4,6.43-27.17,16.33-35.12.07-.06.14-.11.22-.17,1.2-.96,2.46-1.84,3.77-2.64.22-.14.45-.28.68-.42,4.52-2.67,9.57-4.42,14.93-5.02.62-.07,1.25-.13,1.88-.16.77-.06,1.54-.08,2.32-.08,1.5,0,2.98.09,4.43.27,2.42.28,4.77.8,7.03,1.54,3.46,1.11,6.72,2.73,9.72,4.76,1.2.81,2.36,1.69,3.47,2.63,2.61,2.22,4.97,4.78,7,7.62,1.81,2.52,3.37,5.26,4.64,8.18,2.25,5.17,3.59,10.9,3.8,16.94,0,.1.01.2.01.3h0c.01.47.02.91.02,1.37Z"/>
  <line class="cls-52" x1="613.93" y1="403.42" x2="613.93" y2="402.58"/>
  <path class="cls-3" d="m613.93,326.55v76.03c-38.16-16.26-31.96-64-31.96-64,22.01-4.19,30.22-10.5,31.96-12.03Z"/>
  <path class="cls-4" d="m613.93,402.58v-76.03c1.73,1.53,9.94,7.84,31.96,12.03,0,0,6.19,47.74-31.96,64Z"/>
  <path class="cls-36" d="m247.06,495.96h-19.45c-1.25.16-2.57.3-3.95.44-.08-.15-.16-.29-.25-.44h-29.98c-3.42-1.99-8.81-5.11-17.29-10.04-1.85-1.07-3.59-2.14-5.22-3.18-18.89-12.07-23.66-21.75-23.66-21.75-14.81-33,27.19-31.13,27.19-31.13.81.07,1.6.15,2.39.24,22.49,2.54,37.46,12.56,47.29,23.5,2.28,2.53,4.27,5.11,6.03,7.66,2.9,4.21,5.12,8.33,6.82,12.01,1.87,4.08,3.09,7.6,3.83,10.07.61,2.07.9,3.41.95,3.71l5.3,8.91Z"/>
  <path class="cls-29" d="m228.66,495.96h-1.05c-1.25.16-2.57.3-3.95.44-.08-.15-.16-.29-.25-.44-2.6-4.63-5.57-8.87-8.74-12.73-17.71-21.58-41.63-31.43-42.54-31.8,21.72,3.42,38.24,19.61,48.18,32.41,3.69,4.74,6.47,9.01,8.27,12,.03.04.06.08.08.12Z"/>
  <path class="cls-6" d="m440.51,324.11c-.38-.94-19.12-6.86-15.28-25.18,3.84-18.32,3.66-19.07,4.03-30.7s-.19-31.5,28.69-37.88,38.06,10.31,41.06,17.81,6.56,26.88,10.31,30.5,15,15.44,12,27.06-9.29,13.73-20.06,14.74c-10.77,1.01-60.75,3.64-60.75,3.64Z"/>
  <path class="cls-34" d="m441,409.3l-2.25,14.34-8.5,54.32-.54,3.42-2.28,14.58h-17.85l-7.07-91.17c.36-.13,1.8-.07,3.93.11.66.06,1.39.13,2.18.21,1.82.18,3.93.42,6.19.69,2.75.33,5.71.71,8.62,1.09.13.02.26.03.39.05,8.9,1.17,17.18,2.36,17.18,2.36Z"/>
  <path class="cls-40" d="m441,481.8s-.16.84-.41,2.18c-.54,2.85-1.5,7.95-2.28,11.98h-18.1l1.07-19.27.11-1.89,8.86,3.16,7.48,2.67,3.27,1.17Z"/>
  <path class="cls-25" d="m404.76,379.24l19.06,6.94v39.38s-3,9.38-15.38,9.94l-3.69-56.25Z"/>
  <path class="cls-33" d="m549.26,388.14s6,20.72,6,27.66-1.88,20.62-6,24-11.25,9.56-16.12,6.94-2.62-22.94-2.62-22.94l-6.19-28.06,24.94-7.6Z"/>
  <path class="cls-9" d="m517.95,495.96l.12.67-.14-.67-4.36-21.72-.43-2.16s.13-.03.39-.09c1.83-.41,10.09-2.41,23.51-7.43l.77,4.75,4.32,26.65h-24.18Z"/>
  <path class="cls-1" d="m404.76,379.4s4.09-46.79,22.92-53.29,26.08-7.5,26.08-7.5c0,0-7.75,21,9.5,23s29.5-24.35,29.5-24.35c0,0,33,7.85,37.5,13.85s11,10,20.5,57.25c0,0-10.25,8.25-27.5,9.5l-72,87s-23.5,0-31.5-9.75c0,0,4-45.25,4-53.25s-1-34.75-1-34.75c0,0-.25,3.08-18-7.71Z"/>
  <path class="cls-44" d="m451.01,432.55c-1-.88-14.25-10.62-8.62-26.12s8.38-20.12,8.12-27.19-3.88-18.81,12.62-26.56c0,0,16.5-16.88,38.75-3.12,22.25,13.75,14.62,30.5,22.5,44.12s14.75,23.44,10.25,32.91-.62,0-.62,0c0,0-5.12-5.28-16.88-1.16l-66.12,7.12Z"/>
  <path class="cls-9" d="m453.92,466.66c-.43,2.16-1.33,9.85-2.18,17.62-.45,4.15-.9,8.32-1.25,11.68h-14.92c.47-3.55,1.1-8.02,1.75-12.54.14-.93.28-1.86.41-2.79.82-5.53,1.62-10.86,2.17-14.41.39-2.64.65-4.29.65-4.29,1.33.75,6.07,2.36,9.53,3.49.65.22,1.25.41,1.78.58,1.24.4,2.06.66,2.06.66Z"/>
  <path class="cls-40" d="m411.38,435.16c2.11,23.97,4.06,49,4.09,60.8h-30.48c.02.42.03.81.04,1.19l-.07-1.19h-11.55l-41.22-45.48-22.01-24.29-1.45-1.59h-.01s-.33-.37-.33-.37h0s-4.24-4.69-4.24-4.69l-.41-.46s-.03-.02-.04-.04l-3.26-3.59-2.08-2.3-.72-.79v-19.62l-.36.08-1.77.38s-.03,0-.09-.02c-1.46-.31-20.03-4.31-30.1-9.51t-.02-.01c-2.84-1.46-5-3.02-5.91-4.61,0,0,2.27-9.33,5.27-20.42,3.8-14.14,8.79-31.15,11.75-35.45,5.29-7.69,7.35-10.32,17.66-14.07,8.9-3.24,28.13-8.28,33.23-9.61h.01c.81-.21,1.26-.32,1.26-.32,0,0,7.16-.13,16.07-.19,3.6-.04,7.47-.05,11.28-.05.01,0,.01,0,.01,0,3.06,0,6.07.02,8.84.05h.01c5.55.07,10.16.22,12.36.5.51.07.89.14,1.12.22,2.59.88,16.06,3.37,25.93,6.31.18.06.35.11.51.16.87.26,1.71.53,2.5.79,2.84.96,5.16,1.95,6.5,2.94.41.29.73.59.94.89,2.7,3.76,8.19,9.58,11.21,16.09.76,1.6,1.35,3.24,1.72,4.91,1.17,5.23-7.4,21.32-14.07,33.07,0,0,0,0-.01,0-4.09,7.21-7.48,12.77-7.48,13.21,0,.08.05.65.14,1.66.02.16.04.33.06.52.07.77.17,1.74.28,2.88.33,3.38.81,8.29,1.39,14.21.23,2.42.48,5.02.74,7.75.85,8.97,1.83,19.4,2.76,30.05Z"/>
  <path class="cls-10" d="m264.02,383.16s-6.49,24.45-6.69,28.7,1.12,11.61,7.18,16.67c6.05,5.06,26.5,17.01,21.38,11.68-.51-.53.51.84.67-7.79s8.96-39.22,8.96-39.22c0,0-26.59-7.97-31.48-10.04Z"/>
  <path class="cls-26" d="m327.26,299.36s7.03-.37,7.78-11.06.66-16.12.66-16.12c0,0-12.94-1.53-9.56-17.88s28.97-20.56,28.97-20.56l30.47,2.91c.02,1.83.03,3.67.04,5.5.03,4.03.05,8.05.07,12.08s.03,8.03,0,12.04c-.02,3.09-.12,6.03-.89,9.04-.48,1.9-1.08,3.76-1.79,5.58-1.65,4.21-4.01,8.46-7.68,11.23-1.62,1.22-3.5,2.1-5.5,2.46,0,0,.13,3.35,7.32,4.91,0,0-1.19,17.81-24.44,16.37s-24.19-13.19-25.44-16.5Z"/>
  <path class="cls-7" d="m339.82,278.68s11.88,15.94,29.69,15.81l.38,1.75s-17.25,15.06-30.06-17.56Z"/>
  <path class="cls-38" d="m335.7,273.42l14.78,42.27s-19.1-.14-23.22-16.33c0,0,6.19-1.17,7.03-6.8s1.41-19.14,1.41-19.14Z"/>
  <path class="cls-49" d="m327.95,260.18s-.44-5.19,3-5.12,4.44,2.44,4.75,5.75-.19,6.25-3.25,5.12-2.38-4-.94-4.94,1.19-.75,1.19-.75c0,0-2-5.94-4.75-.06Z"/>
  <path class="cls-31" d="m326.14,254.3s-3.38-18.5,0-23.88,8.75-7.12,10.62-7.38c0,0,8.12-11.38,22.12-8.5s14.75,4.75,21,5.38,10.25.75,12.88-1.38c0,0,4.75,12.25-4.38,18.75,0,0,2.38,9.5-2.12,20.88,0,0,0-16.12-2.62-19.12,0,0-6.62,4.38-34.12-1.75,0,0-3.5-.5-3,13,0,0-1.95,7.77-7.25,12.12,0,0-1.5-17.94-13.12-8.12Z"/>
  <path class="cls-50" d="m398.87,457.74s-.12,1.34-4.39,3.48c-2.31,1.15-5.83,2.54-11.2,4.09-.02,0-.04,0-.06.02l1.74,30.63h-79.82l2.35-24.78v-.13s-.71-.02-1.93-.09c-.03,0-.06-.01-.09-.01-4.54-.25-15.68-1.11-22.61-3.69-2.16-.81-3.92-1.78-4.93-2.96,0,0,1.42-6.44,3.12-13.89.76-3.3,1.57-6.8,2.33-10.02.77-3.24,1.49-6.2,2.07-8.4.5-1.89.89-3.22,1.11-3.69.13-.28.33-.65.6-1.13h0c.74-1.34,1.99-3.36,3.7-5.67.16-.22.33-.45.51-.68.67-.88,1.4-1.79,2.19-2.71.4-.47.82-.95,1.25-1.43.51-.55,1.04-1.11,1.59-1.66.13-.13.26-.27.4-.4.5-.5,1.02-.99,1.56-1.47.71-.64,1.44-1.27,2.21-1.87.41-.33.83-.65,1.26-.96.13-.1.26-.2.4-.29,1.83-1.31,3.8-2.47,5.89-3.38.22-.1.44-.2.67-.29,5.48-2.22,8.1-2.9,9.65-3.37,1.96-.59,2.19-.85,4.31-3.52,0,0,24.99,1.99,34.66,3.31,1.44.2,2.53.38,3.16.54,4.48,1.11,13,1.64,20.61,8.88.69.65,1.37,1.36,2.04,2.13,8.06,9.28,15.65,43.41,15.65,43.41Z"/>
  <path class="cls-2" d="m514.23,474.14c-.09.02-.13.02-.13.02v.08s3.85,21.72,3.85,21.72l.12.67-.14-.67h-68.09l.95-11.11,1.17-13.83c-.17-.05-.34-.09-.51-.14-.61-.17-1.19-.33-1.74-.49-5.87-1.75-8.57-3.21-9.81-4.17-1.01-.77-1.05-1.22-1.05-1.22,0,0,5.56-23.66,11.8-32.75.43-.63.87-1.19,1.31-1.67.44-.48.89-.93,1.34-1.35,6.46-6.07,13.81-6.48,17.62-7.38.46-.11,1.21-.23,2.19-.37h.02c7.74-1.04,29.46-2.68,29.46-2.68.82.98,1.3,1.55,1.74,1.92h.01c1.18,1.01,2.1.64,8.4,2.96.48.18.99.37,1.54.58.3.11.59.24.89.37.59.25,1.15.52,1.72.82h.01s.03.01.04.02c5.81,3.04,10.38,8.1,13.15,11.83.98,1.33,1.74,2.49,2.23,3.33.27.44.46.79.58,1.03.3.62,1.13,2.81,2.16,5.67.08.22.16.44.24.66.47,1.29.97,2.69,1.48,4.13,2.47,6.95,5.17,14.76,5.17,14.76-.81.89-2.28,1.7-4.14,2.43-7.71,3.01-22.09,4.67-23.58,4.83Z"/>
  <path class="cls-9" d="m307.51,471.18l-1.96,24.78h-23.88l1.19-28.7.03-.71c11.41,2.78,19.13,3.96,22.58,4.4.03,0,.06.01.09.01,1.16.15,1.8.21,1.93.22h.02Z"/>
  <path class="cls-9" d="m399.53,495.96h-14.54c-.33-9.25-1.04-26.56-1.71-30.65-.01-.05-.01-.09-.02-.13-.01-.06-.02-.11-.03-.16,0,0,1.36-.48,3.15-1.15,2.81-1.03,6.69-2.51,8.01-3.26,0,0,.03.21.09.61.59,3.8,3.74,24.35,5.05,34.74Z"/>
  <path class="cls-23" d="m311.6,439.71s.28,23.62-2.81,30.84c0,0,2.45.84,2.82-1.22s1.87-26.16,0-29.62Z"/>
  <polygon class="cls-23" points="380.6 426.58 382.67 465.4 386.41 464.06 380.6 426.58"/>
  <path class="cls-18" d="m318.39,402.93s4.48-1,4.93-7.75-.43-13.88-1.68-16c0,0-9.98,1.66-12.38-8.28s5.39-10.5,5.39-10.5l13.88-16.36,36.89-1.08s2.58,15.84,2.58,16.12.14,15.38-.94,19.69-4.73,13.17-10.69,16.27l-5.44.98s3.38,5.86,6.47,6.7c0,0,2.34,10.59-16.36,10.5-15.17-.08-22.66-10.3-22.66-10.3Z"/>
  <path class="cls-7" d="m323.31,381.2s11.51,14.72,28.79,14.61l.53,2.93s-16.89,11.71-29.32-17.54Z"/>
  <path class="cls-49" d="m312.85,369.18s-.42-4.65,2.91-4.59c3.34.06,4.31,2.19,4.61,5.15s-.18,5.6-3.15,4.59c-2.97-1.01-2.3-3.59-.91-4.43,1.4-.84,1.15-.67,1.15-.67,0,0-1.94-5.32-4.61-.06Z"/>
  <path class="cls-31" d="m308.85,366.14s-5.86-22.69-2.61-28.26,8.59-7.49,10.46-7.79c0,0,7.85-11.81,21.97-9.24,14.12,2.56,14.92,4.45,21.21,4.93,6.29.47,10.3.5,12.88-1.74,0,0,5.09,12.36-3.89,19.22,0,0,3.35,9.63-.86,21.34,0,0-1.14-16.44-3.85-19.43,0,0-6.98,7.73-34.73,2.21,0,0,1.03,9-3.28,12.28,0,0,1.16,5.03-.53,11.03,0,0-10.97-17.76-16.75-4.54Z"/>
  <path class="cls-43" d="m285.7,432.14s-9-4.75-2.38-14,14.38-12.88,16-13.12,6.59-.88,9.29,2.12c2.71,3,7.08,6.5,7.08,7.88s-.48,3.75-3.05,2.25-6.58-6.12-7.57-6.5-5.75-1.38-5.75-1.38l5.75,2.12s9.38,8.62,9.5,10.25-.08,5.88-4.1,3-8.15-7.5-11.52-9.25-4.5-1-4.5-1c0,0,3.12-.12,9.38,5.75s6.41,4.97,6.34,6.22-2.91,2.78-5.31,1.38-9.56-6.28-10.97-6.69-5.31-.5-5.31-.5c0,0,5.72,2,7.38,3.06s6.41,3.47,6.59,4.16-1.28,3.53-5.34,2.53-7.69-2.97-8.34-2.88-3.78,3.19-3.16,4.59Z"/>
  <path class="cls-22" d="m420.26,386.83c0-.28,2.25-18.75,4.97-26.53,0,0-3.28,22.88-2.34,27.84l-2.62-1.31Z"/>
  <path class="cls-19" d="m445.01,250.8s-13,13.62-6.5,35,15.62,23.62,16.75,23.5,4.12-1,4.12-1c0,0,.38,5.88,0,6.62s-4.51,3.42-6.51,3.84-11.49,26.41,10.01,27.79,33.09-28.49,33.09-28.49c0,0-8.59-.13-11.96-10.51s-1.62-17.37-.62-18.37c0,0,7.5,3.12,10.38-8.88s-6.62-11.88-8.5-10.88-4.62,3.33-4.88,7.1c0,0-23.75-1.6-35.38-25.73Z"/>
  <path class="cls-28" d="m459.76,308.61s14.62-3.06,22.5-15.97v8.59s-9.7,20.42-27.22,16.68c0,0,4.18-.93,4.35-2.99s.38-6.31.38-6.31Z"/>
  <path class="cls-49" d="m491.21,278.24s.44-5.19-3-5.12-4.44,2.44-4.75,5.75.19,6.25,3.25,5.12,2.38-4,.94-4.94-1.19-.75-1.19-.75c0,0,2-5.94,4.75-.06Z"/>
  <path class="cls-49" d="m507.62,389.85s.37-4.33-2.5-4.28c-2.87.05-3.7,2.03-3.96,4.8s.16,5.21,2.71,4.28,1.98-3.34.78-4.12-.99-.63-.99-.63c0,0,1.67-4.95,3.96-.05Z"/>
  <path class="cls-35" d="m471.76,421.8l3.75-.88,1.5-6.62s-16.73,2.22-20.75-25.12c0,0-3.75-18.62,8.25-26.88,0,0,9.25,21.62,32.75,24.88,0,0,3.5-8.38,9.5-5.88s5.38,8.62,2.25,14.25-8.5,2.75-8.5,2.75c0,0-2,11.09-.88,14.92s4.83,7.35,4.83,7.35c0,0-28.2,33.73-32.7,1.23Z"/>
  <path class="cls-46" d="m477.76,414.11s12.62-.94,21.25-11.72c0,0-2.25,14.16-22.69,17.34,0,0,.53-4.88,1.44-5.62Z"/>
  <path class="cls-30" d="m449.71,470.43s1.49-22.25,2.86-26.25c0,0-.61,26.91-1.18,26.75s-1.69-.5-1.69-.5Z"/>
  <path class="cls-30" d="m448.89,450.8s.88,11.94,1.56,14.19l-.78.25s-1.41-7-.78-14.44Z"/>
  <path class="cls-30" d="m511.76,445.49s-4.38,16.5,1.25,28.75h1.25s-6.5-18.12-2.5-28.75Z"/>
  <path class="cls-37" d="m515.98,434.27s-3.53,1.12-1.72-3.09.69-7.96,12.03-7.31,13.69,11.43,13.22,14.06-.54,7.29-4.21,10.07-14.07,3.71-13.32-.41c0,0-6.66,1.62-6.84-3.41,0,0-7.41-.16.84-9.91Z"/>
  <path class="cls-21" d="m223.41,495.96h4.2c-1.25.16-2.57.3-3.95.44-.08-.15-.16-.29-.25-.44Z"/>
  <path class="cls-21" d="m384.99,495.96c.02.42.03.81.04,1.19l-.07-1.19h.03Z"/>
  <polygon class="cls-21" points="517.95 495.96 518.07 496.63 517.93 495.96 517.95 495.96"/>
  <path class="cls-21" d="m566.32,495.96s-.06.1-.07.14h-.01c-.31-.05-.6-.09-.9-.14h.98Z"/>
</svg>