<svg width="430px" height="126px" viewBox="0 0 430 126" version="1.1" xmlns="http://www.w3.org/2000/svg" xmlns:xlink="http://www.w3.org/1999/xlink">
    <g>
        <path d="M171.933097,59.4113689 C176.770665,59.4113689 179.425904,60.0790247 182.129953,62.4547978 C184.685403,64.6926912 185.136078,68.8980216 185.136078,71.2324307 L185.136078,88.1163286 L177.578734,88.1163286 L177.578734,85.2781283 C175.601405,87.35746 173.169063,88.6736807 169.384154,88.7739086 C163.427762,88.9457279 158.737165,85.3937351 158.737165,80.0853672 C158.737165,71.9159958 167.639484,70.1214386 176.357411,70.1214386 L177.337398,70.1214386 C177.337398,67.8633936 176.312397,65.7745164 171.710742,65.7745164 C168.586389,65.7745164 165.935488,66.7508106 164.048186,68.4552157 L159.473647,63.9884441 C162.621863,60.9609244 167.045634,59.4113689 171.933097,59.4113689 Z M402.700822,59.4124295 C413.070681,59.4124295 417.235762,67.2832383 417.235762,74.5956344 L417.235762,76.711027 L396.226507,76.711027 C396.365344,79.5741517 399.673546,82.036895 403.571259,82.1800778 C407.214078,82.3232605 409.208219,80.9163574 411.08576,78.9245263 L416.265537,82.630308 C413.120575,86.5190454 409.229912,88.7770905 403.717688,88.7770905 C394.985118,88.7770905 387.852417,83.4681922 387.852417,74.098207 C387.852417,66.6028551 392.624363,59.4124295 402.700822,59.4124295 Z M383.144465,47.4296242 L383.144465,88.115268 L375.37724,88.115268 L375.37724,84.9991871 C373.563152,87.0451095 370.593362,88.7776208 366.474379,88.7776208 C362.513756,88.7776208 359.077022,87.4730668 356.538925,84.9912325 C353.817522,82.3312151 352.311476,78.4562657 352.311476,74.1013888 C352.311476,65.5857273 358.146929,59.4140204 366.204842,59.4140204 C369.727264,59.4140204 372.649871,60.4730425 374.893483,62.543359 L374.893483,47.4296242 L383.144465,47.4296242 Z M243.120731,59.4087173 C252.120126,59.4087173 258.632404,65.5809545 258.632404,74.0939645 C258.632404,82.6048533 252.120126,88.7776208 243.120731,88.7776208 C234.124048,88.7776208 227.607431,82.6048533 227.607431,74.0939645 C227.607431,65.5809545 234.124048,59.4087173 243.120731,59.4087173 Z M201.789894,51.2388156 L201.789894,60.0790247 L209.377067,60.0790247 L209.377067,66.7449772 L201.789894,66.7449772 L201.789894,78.2568704 C201.789894,80.5340065 202.441231,81.8878789 204.971734,81.8878789 C206.846563,81.8878789 208.347728,81.6598471 209.377067,81.3225722 L209.377067,81.3225722 L209.377067,87.6295072 C207.664394,88.3512544 205.45766,88.7754995 203.269908,88.7754995 C199.819073,88.7754995 197.489231,88.0776162 195.958781,86.587455 C194.336677,84.9991871 193.645751,82.6313686 193.645751,78.647176 L193.645751,78.647176 L193.645751,66.7449772 L188.029399,66.7449772 L188.029399,60.0790247 L193.645751,60.0790247 L193.645751,51.2388156 L201.789894,51.2388156 Z M279.792968,59.4198538 C282.987824,59.3954597 285.142494,60.2222075 286.873606,61.9838856 C289.188805,64.3416283 289.64165,67.1872529 289.64165,70.6109115 L289.64165,70.6109115 L289.64165,88.1184498 L281.403683,88.1184498 L281.403683,73.9407059 C281.403683,71.3756135 281.163432,69.469692 280.27781,68.3815031 C279.570614,67.4996034 278.574357,66.709977 276.709832,66.8133868 C275.167451,66.9056601 273.954262,67.4852851 273.116907,68.4027153 C272.158071,69.4373433 271.605438,70.9025801 271.605438,72.8811536 L271.605438,72.8811536 L271.605438,88.1184498 L263.359337,88.1184498 L263.359337,60.086449 L271.26106,60.086449 L271.26106,63.1293476 C272.992172,60.9375909 276.638787,59.4384145 279.792968,59.4198538 Z M347.580205,60.0822066 L347.580205,88.1163286 L339.334103,88.1163286 L339.334103,60.0822066 L347.580205,60.0822066 Z M222.857178,60.0822066 L222.857178,88.1163286 L214.617042,88.1163286 L214.617042,60.0822066 L222.857178,60.0822066 Z M127.209996,47.4296242 L144.853019,75.0527586 L144.853019,47.4296242 L153.815536,47.4296242 L153.815536,88.115268 L143.283521,88.115268 L125.151318,59.5630365 L125.151318,88.115268 L116.180124,88.115268 L116.180124,47.4296242 L127.209996,47.4296242 Z M300.964379,60.0790247 L305.589897,77.4529258 L310.055428,60.0790247 L318.600894,60.0790247 L323.222615,77.49482 L327.844879,60.0790247 L336.487965,60.0790247 L327.337802,88.115268 L319.763104,88.115268 L314.232982,70.490532 L309.316234,88.115268 L301.134128,88.115268 L291.95468,60.0790247 L300.964379,60.0790247 Z M177.337398,75.9330674 L176.605797,75.9330674 C175.33241,75.9330674 172.254697,76.0810229 169.930278,76.7073149 C168.327698,77.1373934 166.98869,78.1645971 166.98869,79.5964246 C166.98869,81.6184832 169.059299,82.5067466 170.923824,82.5067466 C174.939764,82.5067466 177.337398,80.0180183 177.337398,76.7916336 L177.337398,75.9330674 Z M367.837792,66.5137636 C363.05988,66.5137636 360.563543,70.3271976 360.563543,74.1013888 C360.563543,77.8575496 363.05988,81.6778776 367.837792,81.6778776 C372.629262,81.6778776 375.125599,77.8575496 375.125599,74.1013888 C375.125599,70.3271976 372.629262,66.5137636 367.837792,66.5137636 Z M243.120731,66.5169455 C238.335769,66.5169455 235.847025,70.3293188 235.847025,74.0939645 C235.847025,77.8602012 238.335769,81.6693926 243.120731,81.6693926 C247.892678,81.6693926 250.394438,77.8602012 250.394438,74.0939645 C250.394438,70.3293188 247.892678,66.5169455 243.120731,66.5169455 Z M402.420981,65.7421677 C398.967977,65.8174712 396.610476,68.1009709 396.24332,70.9518986 L408.570441,70.9518986 C408.209793,67.8989242 406.494951,65.6599702 402.420981,65.7421677 Z M423.438913,47.3887906 C427.055158,47.3887906 430,50.2699457 430,53.8039081 C430,57.3405221 427.055158,60.2200863 423.438913,60.2200863 C419.82321,60.2200863 416.879452,57.3405221 416.879452,53.8039081 C416.879452,50.2699457 419.82321,47.3887906 423.438913,47.3887906 Z M423.438913,48.5268283 C420.458819,48.5268283 418.043289,50.889874 418.043289,53.8039081 C418.043289,56.7190029 420.458819,59.0841698 423.438913,59.0841698 C426.419006,59.0841698 428.838875,56.7190029 428.838875,53.8039081 C428.838875,50.889874 426.419006,48.5268283 423.438913,48.5268283 Z M423.81095,50.0965355 C425.60931,50.0965355 426.452631,50.889874 426.452631,52.3036711 C426.452631,53.5811794 425.680355,54.201638 424.656982,54.3204266 L424.656982,54.3204266 L426.613702,57.4274923 L425.170567,57.4274923 L423.297907,54.4254273 L422.291888,54.4254273 L422.291888,57.4274923 L420.918171,57.4274923 L420.918171,50.0965355 Z M218.733856,47.6634893 C221.402111,47.6634893 223.614811,49.6797146 223.614811,52.1705641 C223.614811,54.6614137 221.402111,56.6781693 218.733856,56.6781693 C216.065601,56.6781693 213.857241,54.6614137 213.857241,52.1705641 C213.857241,49.6797146 216.065601,47.6634893 218.733856,47.6634893 Z M343.446579,47.6634893 C346.115918,47.6634893 348.327533,49.6797146 348.327533,52.1705641 C348.327533,54.6614137 346.115918,56.6781693 343.446579,56.6781693 C340.790255,56.6781693 338.569963,54.6614137 338.569963,52.1705641 C338.569963,49.6797146 340.790255,47.6634893 343.446579,47.6634893 Z M425.08054,52.2522313 C425.08054,51.2674522 424.145566,51.2160125 423.297907,51.2335126 L423.297907,51.2335126 L422.291888,51.2335126 L422.291888,53.2873896 L423.419485,53.2869445 C424.232491,53.2803766 425.08054,53.1891061 425.08054,52.2522313 Z" fill="#000000"></path>
        <g transform="translate(0.000000, 0.656917)">
            <path d="M61.160503,95.093398 C58.8367582,97.7554702 55.8233052,101.541732 56.4759383,104.302379 C56.4759383,104.302379 56.4759383,104.303995 56.4759383,104.305073 C56.9611877,106.592774 60.2254438,107.999223 60.2254438,107.999223 L67.2457481,111.75909 L62.6898563,115.687559 L68.1568174,117.389195 C68.1568174,117.389195 63.1462088,122.465555 62.569907,122.973514 C61.138694,123.212141 59.6218808,123.354887 57.9927515,123.354887 C46.3931107,123.354887 30.2653846,116.591435 26.2754353,116.542417 C21.4643787,116.483703 15.4211158,119.224958 15.4211158,119.224958 L18.5763271,115.850235 C18.5763271,115.850235 14.4462553,116.676544 10.4426754,116.340418 L16.0873795,112.552002 C11.1285672,112.392558 6.78585799,110.933859 4.73908707,109.504247 C4.73908707,109.504247 13.8694083,108.78998 26.2492646,108.920875 C31.2598732,108.973126 39.7533728,109.468696 39.7533728,109.468696 C35.5546027,107.705652 31.6295351,105.385092 29.9453381,101.304182 L37.9508622,102.496781 C34.5901014,100.46279 29.7103466,95.3724254 28.8112722,91.4321061 L37.7376796,94.52457 C36.1532587,92.8250885 30.6323204,87.7185639 29.6400127,81.7986584 L36.7044801,86.1892999 C34.8534446,84.3476114 29.8346577,74.5638767 30.6884784,71.7030379 L37.2731488,76.0775195 C34.1206636,72.2266182 30.4316779,62.0205718 32.9429797,58.0468554 C34.944497,65.737346 39.4017033,68.5373159 39.4017033,68.5373159 C36.4749408,64.350289 30.1645182,49.5160507 36.1908791,42.9842241 C37.7747549,57.7780626 44.1391547,62.7725452 44.1391547,62.7725452 C38.8712003,54.4771362 32.8688292,29.0113078 44.064459,23.8606129 C41.8721133,40.2230379 47.1635123,49.1169014 47.1635123,49.1169014 C43.8240152,34.0424195 43.9336052,12.6833572 55.2715385,10.7312428 C49.7042561,26.8345709 53.6593111,39.252906 53.6593111,39.252906 C52.8474725,1.58690098 65.1297337,2.22130872 65.1297337,2.22130872 C65.1297337,2.22130872 63.110224,12.9176756 63.110224,31.9788018 L63.110224,87.0258434 C63.110224,90.828265 62.7809087,93.0933426 61.160503,95.093398 Z M68.4512384,108.418841 C73.3920583,108.794828 76.9027557,109.120181 80.4281741,109.557575 C81.7607016,109.723483 82.2906593,111.246283 82.4667667,111.960012 C80.7782079,111.54578 78.1098817,111.435893 78.1098817,111.435893 L77.9632164,113.01633 C77.9632164,113.01633 80.2460693,112.372627 82.7453762,112.34354 C82.7453762,112.34354 87.871027,112.321454 87.6278571,115.741425 C86.2282671,114.785299 83.3663863,115.166133 82.5578191,115.297567 C79.9843618,115.716108 77.5346703,116.894164 74.6995055,118.373871 C72.1047844,119.72807 69.3072401,121.184614 66.0200845,122.169829 C67.4583855,120.787081 71.2215216,116.68624 71.2215216,116.68624 L66.2081868,114.960364 L70.3126331,111.422426 L64.0049366,108.04878 C65.5789983,108.182368 67.0685503,108.31488 68.4512384,108.418841 Z M68.9866484,102.859301 L91.799366,102.859301 L91.799366,28.4688742 L70.9216484,28.4688742 L70.9216484,74.8181256 L64.8631192,68.9574729 L64.8631192,32.0084283 C64.7551648,10.2954645 67.3771471,0 67.3771471,0 C60.3104987,0 56.6433221,6.61531938 55.8260313,8.57012713 C51.857891,9.00321212 48.6050845,11.2618258 46.4274598,15.6519286 C45.1952536,18.1367807 44.5807861,20.5446039 44.3610609,21.7221211 C35.998415,23.6289878 35.2743576,38.3441816 35.8233981,40.9879393 L22.8350719,28.4688742 L0.082328825,28.4688742 L0.082328825,102.859301 L20.9584108,102.859301 L20.9584108,57.9014164 C20.9584108,57.9014164 31.0521429,67.3501028 31.0521429,67.3479481 C31.9703001,70.0590386 32.8617413,71.1439058 32.8617413,71.1439058 L28.898508,67.7853424 C28.1826289,75.0853024 30.2599324,78.8290097 32.1889349,81.5939665 L27.3713356,77.5583039 C26.9967667,84.8038589 30.5385418,89.2499826 32.7079882,91.16062 L26.3381361,88.0719268 C25.9019569,92.408702 30.305186,98.7611539 32.8617413,99.9876894 L27.4880135,99.1958549 C28.6564286,105.176091 32.8617413,107.325356 32.8617413,107.325356 C32.8617413,107.325356 23.6828952,107.136285 19.45959,107.136285 C7.71164835,107.136285 0,108.23408 0,108.23408 C0,108.23408 5.19925613,113.341143 11.8417202,113.576539 L5.92549451,117.180194 C10.2218597,118.566174 14.3050423,118.085148 14.3050423,118.085148 L10.8881234,122.122965 C10.8881234,122.122965 21.6426669,118.037745 26.1827473,118.347477 C29.7970372,118.594723 46.6651775,125.092075 57.9927515,125.092075 C65.5915385,125.092075 71.0977557,122.220463 75.5217033,119.910138 C78.2200169,118.500995 80.5492139,117.361185 82.8440617,117.013747 C86.9495985,116.390514 88.7973626,117.867528 88.7973626,117.867528 C89.2166399,116.161044 90.4859214,111.852818 83.8298267,110.799732 C83.5664835,109.62814 82.41388,108.09726 80.6915173,107.83924 C77.1153931,107.303271 62.0633939,106.156996 61.6223077,106.131679 C60.3317625,106.054111 55.9895985,105.226186 59.9833643,99.5756122 C60.284328,99.1495299 62.3038377,96.637206 62.3038377,96.637206 L68.9866484,102.859301 L68.9866484,102.859301 Z" fill="#1C57A5"></path>
            <path d="M56.4759383,104.302379 C56.4759383,104.302379 56.4759383,104.303995 56.4759383,104.305073 C56.9611877,106.592774 60.2254438,107.999223 60.2254438,107.999223 L67.2457481,111.75909 L62.6898563,115.687559 L68.1568174,117.389195 C68.1568174,117.389195 63.1462088,122.465555 62.569907,122.973514 C61.138694,123.212141 59.6218808,123.354887 57.9927515,123.354887 C46.3931107,123.354887 30.2653846,116.591435 26.2754353,116.542417 C21.4643787,116.483703 15.4211158,119.224958 15.4211158,119.224958 L18.5763271,115.850235 C18.5763271,115.850235 14.4462553,116.676544 10.4426754,116.340418 L16.0873795,112.552002 C11.1285672,112.392558 6.78585799,110.933859 4.73908707,109.504247 C4.73908707,109.504247 13.8694083,108.78998 26.2492646,108.920875 C31.2598732,108.973126 39.7533728,109.468696 39.7533728,109.468696 C35.5546027,107.705652 31.6295351,105.385092 29.9453381,101.304182 L37.9508622,102.496781 C34.5901014,100.46279 29.7103466,95.3724254 28.8112722,91.4321061 L37.7376796,94.52457 C36.1532587,92.8250885 30.6323204,87.7185639 29.6400127,81.7986584 L36.7044801,86.1892999 C34.8534446,84.3476114 29.8346577,74.5638767 30.6884784,71.7030379 L37.2731488,76.0775195 C34.1206636,72.2266182 30.4316779,62.0205718 32.9429797,58.0468554 C34.944497,65.737346 39.4017033,68.5373159 39.4017033,68.5373159 C36.4749408,64.350289 30.1645182,49.5160507 36.1908791,42.9842241 C37.7747549,57.7780626 44.1391547,62.7725452 44.1391547,62.7725452 C38.8712003,54.4771362 32.8688292,29.0113078 44.064459,23.8606129 C41.8721133,40.2230379 47.1635123,49.1169014 47.1635123,49.1169014 C43.8240152,34.0424195 43.9336052,12.6833572 55.2715385,10.7312428 C49.7042561,26.8345709 53.6593111,39.252906 53.6593111,39.252906 C52.8474725,1.58690098 65.1297337,2.22130872 65.1297337,2.22130872 C65.1297337,2.22130872 63.110224,12.9176756 63.110224,31.9788018 L63.110224,87.0258434 C63.110224,90.828265 62.7809087,93.0933426 61.160503,95.093398 C58.8367582,97.7554702 55.8233052,101.541732 56.4759383,104.302379" fill="#FFFFFE"></path>
            <path d="M68.4512384,108.418841 C73.3920583,108.794828 76.9027557,109.120181 80.4281741,109.557575 C81.7607016,109.723483 82.2906593,111.246283 82.4667667,111.960012 C80.7782079,111.54578 78.1098817,111.435893 78.1098817,111.435893 L77.9632164,113.01633 C77.9632164,113.01633 80.2460693,112.372627 82.7453762,112.34354 C82.7453762,112.34354 87.871027,112.321454 87.6278571,115.741425 C86.2282671,114.785299 83.3663863,115.166133 82.5578191,115.297567 C79.9843618,115.716108 77.5346703,116.894164 74.6995055,118.373871 C72.1047844,119.72807 69.3072401,121.184614 66.0200845,122.169829 C67.4583855,120.787081 71.2215216,116.68624 71.2215216,116.68624 L66.2081868,114.960364 L70.3126331,111.422426 L64.0049366,108.04878 C65.5789983,108.182368 67.0685503,108.31488 68.4512384,108.418841" id="Fill-21" fill="#FFFFFE"></path>
        </g>
    </g>
</svg>